# xmcd
#
# Track frame offsets:
# 265
# 22385
# 46439
# 71864
# 93422
# 111888
# 135916
# 155146
# 174165
# 208212
# 225359
# 247280
# 269859
# 291722
# 316099
# 335630
#
# Disc length: 4745 seconds
#
#
# Revision: 0
# Processed by: cddbd v1.5.2PL0 Copyright (c) Steve Scherf et al.
# Submitted via: FreeRIP 2.945 
#
DISCID=03128610
DTITLE=Danilo - Tua Presença
DYEAR=2008
DGENRE=Gospel
TTITLE0=Deus poderoso
TTITLE1=Guarda-me, ó Deu
TTITLE2=Eu espero em Ti
TTITLE3=Toda honra
TTITLE4=Quero te adorar
TTITLE5=Tua presença
TTITLE6=Não temas
TTITLE7=Jesus ilumina o meu caminho
TTITLE8=Te agradecer
TTITLE9=Seu imenso amor
TTITLE10=Eu estou aqui
TTITLE11=PB1
TTITLE12=PB2
TTITLE13=PB3
TTITLE14=PB4
TTITLE15=PB5
EXTD=www.daniloonline.com.br
EXTT0=
EXTT1=
EXTT2=
EXTT3=
EXTT4=
EXTT5=
EXTT6=
EXTT7=
EXTT8=
EXTT9=
EXTT10=
EXTT11=
EXTT12=
EXTT13=
EXTT14=
EXTT15=
PLAYORDER=
